<?xml version="1.0" encoding="UTF-8" standalone="no"?>
<!DOCTYPE svg PUBLIC "-//W3C//DTD SVG 1.1//EN"
 "http://www.w3.org/Graphics/SVG/1.1/DTD/svg11.dtd">
<!-- Generated by graphviz version 2.38.0 (20140413.2041)
 -->
<!-- Title: G Pages: 1 -->
<svg width="295pt" height="260pt"
 viewBox="0.00 0.00 294.50 260.00" xmlns="http://www.w3.org/2000/svg" xmlns:xlink="http://www.w3.org/1999/xlink">
<g id="graph0" class="graph" transform="scale(1 1) rotate(0) translate(4 256)">
<title>G</title>
<polygon fill="white" stroke="none" points="-4,4 -4,-256 290.5,-256 290.5,4 -4,4"/>
<!-- File -->
<g id="node1" class="node"><title>File</title>
<polygon fill="none" stroke="black" points="198.5,-252 144.5,-252 144.5,-216 198.5,-216 198.5,-252"/>
<text text-anchor="middle" x="171.5" y="-230.3" font-family="Times,serif" font-size="14.00">File</text>
</g>
<!-- Eq1 -->
<g id="node2" class="node"><title>Eq1</title>
<polygon fill="none" stroke="black" points="163,-180 86,-180 86,-144 163,-144 163,-180"/>
<text text-anchor="middle" x="124.5" y="-158.3" font-family="Times,serif" font-size="14.00">Equation =</text>
</g>
<!-- File&#45;&gt;Eq1 -->
<g id="edge1" class="edge"><title>File&#45;&gt;Eq1</title>
<path fill="none" stroke="black" d="M159.882,-215.697C154.361,-207.474 147.653,-197.483 141.568,-188.421"/>
<polygon fill="black" stroke="black" points="144.465,-186.456 135.984,-180.104 138.653,-190.358 144.465,-186.456"/>
</g>
<!-- Compiled -->
<g id="node6" class="node"><title>Compiled</title>
<polygon fill="none" stroke="black" points="255,-180 184,-180 184,-144 255,-144 255,-180"/>
<text text-anchor="middle" x="219.5" y="-158.3" font-family="Times,serif" font-size="14.00">Compiled</text>
</g>
<!-- File&#45;&gt;Compiled -->
<g id="edge5" class="edge"><title>File&#45;&gt;Compiled</title>
<path fill="none" stroke="black" d="M183.365,-215.697C189.003,-207.474 195.854,-197.483 202.069,-188.421"/>
<polygon fill="black" stroke="black" points="205.003,-190.331 207.771,-180.104 199.229,-186.372 205.003,-190.331"/>
</g>
<!-- Var1 -->
<g id="node3" class="node"><title>Var1</title>
<polygon fill="none" stroke="black" points="69,-108 0,-108 0,-72 69,-72 69,-108"/>
<text text-anchor="middle" x="34.5" y="-86.3" font-family="Times,serif" font-size="14.00">Var_Decl</text>
</g>
<!-- Eq1&#45;&gt;Var1 -->
<g id="edge2" class="edge"><title>Eq1&#45;&gt;Var1</title>
<path fill="none" stroke="black" d="M102.253,-143.697C90.9181,-134.881 76.9698,-124.032 64.6811,-114.474"/>
<polygon fill="black" stroke="black" points="66.5336,-111.481 56.4913,-108.104 62.236,-117.007 66.5336,-111.481"/>
</g>
<!-- Const1 -->
<g id="node5" class="node"><title>Const1</title>
<polygon fill="none" stroke="black" points="162,-108 87,-108 87,-72 162,-72 162,-108"/>
<text text-anchor="middle" x="124.5" y="-86.3" font-family="Times,serif" font-size="14.00">Constant 0</text>
</g>
<!-- Eq1&#45;&gt;Const1 -->
<g id="edge4" class="edge"><title>Eq1&#45;&gt;Const1</title>
<path fill="none" stroke="black" d="M124.5,-143.697C124.5,-135.983 124.5,-126.712 124.5,-118.112"/>
<polygon fill="black" stroke="black" points="128,-118.104 124.5,-108.104 121,-118.104 128,-118.104"/>
</g>
<!-- Id1 -->
<g id="node4" class="node"><title>Id1</title>
<polygon fill="none" stroke="black" points="61.5,-36 7.5,-36 7.5,-0 61.5,-0 61.5,-36"/>
<text text-anchor="middle" x="34.5" y="-14.3" font-family="Times,serif" font-size="14.00">Id x</text>
</g>
<!-- Var1&#45;&gt;Id1 -->
<g id="edge3" class="edge"><title>Var1&#45;&gt;Id1</title>
<path fill="none" stroke="black" d="M34.5,-71.6966C34.5,-63.9827 34.5,-54.7125 34.5,-46.1124"/>
<polygon fill="black" stroke="black" points="38.0001,-46.1043 34.5,-36.1043 31.0001,-46.1044 38.0001,-46.1043"/>
</g>
<!-- Eq3 -->
<g id="node7" class="node"><title>Eq3</title>
<polygon fill="none" stroke="black" points="266.5,-108 180.5,-108 180.5,-72 266.5,-72 266.5,-108"/>
<text text-anchor="middle" x="223.5" y="-86.3" font-family="Times,serif" font-size="14.00">Equation +=</text>
</g>
<!-- Compiled&#45;&gt;Eq3 -->
<g id="edge6" class="edge"><title>Compiled&#45;&gt;Eq3</title>
<path fill="none" stroke="black" d="M220.489,-143.697C220.93,-135.983 221.459,-126.712 221.951,-118.112"/>
<polygon fill="black" stroke="black" points="225.446,-118.288 222.523,-108.104 218.458,-117.888 225.446,-118.288"/>
</g>
<!-- Id5 -->
<g id="node8" class="node"><title>Id5</title>
<polygon fill="none" stroke="black" points="214.5,-36 160.5,-36 160.5,-0 214.5,-0 214.5,-36"/>
<text text-anchor="middle" x="187.5" y="-14.3" font-family="Times,serif" font-size="14.00">Id x</text>
</g>
<!-- Eq3&#45;&gt;Id5 -->
<g id="edge7" class="edge"><title>Eq3&#45;&gt;Id5</title>
<path fill="none" stroke="black" d="M214.601,-71.6966C210.503,-63.7284 205.551,-54.0995 201.007,-45.2641"/>
<polygon fill="black" stroke="black" points="203.983,-43.3965 196.297,-36.1043 197.758,-46.598 203.983,-43.3965"/>
</g>
<!-- Id6 -->
<g id="node9" class="node"><title>Id6</title>
<polygon fill="none" stroke="black" points="286.5,-36 232.5,-36 232.5,-0 286.5,-0 286.5,-36"/>
<text text-anchor="middle" x="259.5" y="-14.3" font-family="Times,serif" font-size="14.00">Id i</text>
</g>
<!-- Eq3&#45;&gt;Id6 -->
<g id="edge8" class="edge"><title>Eq3&#45;&gt;Id6</title>
<path fill="none" stroke="black" d="M232.399,-71.6966C236.497,-63.7284 241.449,-54.0995 245.993,-45.2641"/>
<polygon fill="black" stroke="black" points="249.242,-46.598 250.703,-36.1043 243.017,-43.3965 249.242,-46.598"/>
</g>
</g>
</svg>
