<?xml version="1.0" encoding="UTF-8" standalone="no"?>
<!DOCTYPE svg PUBLIC "-//W3C//DTD SVG 1.1//EN"
 "http://www.w3.org/Graphics/SVG/1.1/DTD/svg11.dtd">
<!-- Generated by graphviz version 2.38.0 (20140413.2041)
 -->
<!-- Title: G Pages: 1 -->
<svg width="634pt" height="332pt"
 viewBox="0.00 0.00 633.50 332.00" xmlns="http://www.w3.org/2000/svg" xmlns:xlink="http://www.w3.org/1999/xlink">
<g id="graph0" class="graph" transform="scale(1 1) rotate(0) translate(4 328)">
<title>G</title>
<polygon fill="white" stroke="none" points="-4,4 -4,-328 629.5,-328 629.5,4 -4,4"/>
<!-- File -->
<g id="node1" class="node"><title>File</title>
<polygon fill="none" stroke="black" points="261.5,-324 207.5,-324 207.5,-288 261.5,-288 261.5,-324"/>
<text text-anchor="middle" x="234.5" y="-302.3" font-family="Times,serif" font-size="14.00">File</text>
</g>
<!-- Eq1 -->
<g id="node2" class="node"><title>Eq1</title>
<polygon fill="none" stroke="black" points="163,-252 86,-252 86,-216 163,-216 163,-252"/>
<text text-anchor="middle" x="124.5" y="-230.3" font-family="Times,serif" font-size="14.00">Equation =</text>
</g>
<!-- File&#45;&gt;Eq1 -->
<g id="edge1" class="edge"><title>File&#45;&gt;Eq1</title>
<path fill="none" stroke="black" d="M207.591,-287.876C193.342,-278.808 175.654,-267.552 160.264,-257.759"/>
<polygon fill="black" stroke="black" points="161.828,-254.606 151.512,-252.19 158.07,-260.511 161.828,-254.606"/>
</g>
<!-- For -->
<g id="node6" class="node"><title>For</title>
<polygon fill="none" stroke="black" points="372.5,-252 318.5,-252 318.5,-216 372.5,-216 372.5,-252"/>
<text text-anchor="middle" x="345.5" y="-230.3" font-family="Times,serif" font-size="14.00">For</text>
</g>
<!-- File&#45;&gt;For -->
<g id="edge5" class="edge"><title>File&#45;&gt;For</title>
<path fill="none" stroke="black" d="M261.654,-287.876C276.033,-278.808 293.881,-267.552 309.41,-257.759"/>
<polygon fill="black" stroke="black" points="311.65,-260.484 318.242,-252.19 307.916,-254.564 311.65,-260.484"/>
</g>
<!-- Var1 -->
<g id="node3" class="node"><title>Var1</title>
<polygon fill="none" stroke="black" points="69,-180 0,-180 0,-144 69,-144 69,-180"/>
<text text-anchor="middle" x="34.5" y="-158.3" font-family="Times,serif" font-size="14.00">Var_Decl</text>
</g>
<!-- Eq1&#45;&gt;Var1 -->
<g id="edge2" class="edge"><title>Eq1&#45;&gt;Var1</title>
<path fill="none" stroke="black" d="M102.253,-215.697C90.9181,-206.881 76.9698,-196.032 64.6811,-186.474"/>
<polygon fill="black" stroke="black" points="66.5336,-183.481 56.4913,-180.104 62.236,-189.007 66.5336,-183.481"/>
</g>
<!-- Const1 -->
<g id="node5" class="node"><title>Const1</title>
<polygon fill="none" stroke="black" points="162,-180 87,-180 87,-144 162,-144 162,-180"/>
<text text-anchor="middle" x="124.5" y="-158.3" font-family="Times,serif" font-size="14.00">Constant 0</text>
</g>
<!-- Eq1&#45;&gt;Const1 -->
<g id="edge4" class="edge"><title>Eq1&#45;&gt;Const1</title>
<path fill="none" stroke="black" d="M124.5,-215.697C124.5,-207.983 124.5,-198.712 124.5,-190.112"/>
<polygon fill="black" stroke="black" points="128,-190.104 124.5,-180.104 121,-190.104 128,-190.104"/>
</g>
<!-- Id1 -->
<g id="node4" class="node"><title>Id1</title>
<polygon fill="none" stroke="black" points="61.5,-108 7.5,-108 7.5,-72 61.5,-72 61.5,-108"/>
<text text-anchor="middle" x="34.5" y="-86.3" font-family="Times,serif" font-size="14.00">Id x</text>
</g>
<!-- Var1&#45;&gt;Id1 -->
<g id="edge3" class="edge"><title>Var1&#45;&gt;Id1</title>
<path fill="none" stroke="black" d="M34.5,-143.697C34.5,-135.983 34.5,-126.712 34.5,-118.112"/>
<polygon fill="black" stroke="black" points="38.0001,-118.104 34.5,-108.104 31.0001,-118.104 38.0001,-118.104"/>
</g>
<!-- Eq2 -->
<g id="node7" class="node"><title>Eq2</title>
<polygon fill="none" stroke="black" points="257,-180 180,-180 180,-144 257,-144 257,-180"/>
<text text-anchor="middle" x="218.5" y="-158.3" font-family="Times,serif" font-size="14.00">Equation =</text>
</g>
<!-- For&#45;&gt;Eq2 -->
<g id="edge6" class="edge"><title>For&#45;&gt;Eq2</title>
<path fill="none" stroke="black" d="M318.255,-217.983C300.889,-208.412 278.083,-195.841 258.661,-185.136"/>
<polygon fill="black" stroke="black" points="260.17,-181.971 249.723,-180.209 256.791,-188.102 260.17,-181.971"/>
</g>
<!-- Binary -->
<g id="node11" class="node"><title>Binary</title>
<polygon fill="none" stroke="black" points="378,-180 313,-180 313,-144 378,-144 378,-180"/>
<text text-anchor="middle" x="345.5" y="-158.3" font-family="Times,serif" font-size="14.00">Binary &lt;</text>
</g>
<!-- For&#45;&gt;Binary -->
<g id="edge10" class="edge"><title>For&#45;&gt;Binary</title>
<path fill="none" stroke="black" d="M345.5,-215.697C345.5,-207.983 345.5,-198.712 345.5,-190.112"/>
<polygon fill="black" stroke="black" points="349,-190.104 345.5,-180.104 342,-190.104 349,-190.104"/>
</g>
<!-- Prefix -->
<g id="node14" class="node"><title>Prefix</title>
<polygon fill="none" stroke="black" points="487.5,-180 417.5,-180 417.5,-144 487.5,-144 487.5,-180"/>
<text text-anchor="middle" x="452.5" y="-158.3" font-family="Times,serif" font-size="14.00">Prefix ++</text>
</g>
<!-- For&#45;&gt;Prefix -->
<g id="edge13" class="edge"><title>For&#45;&gt;Prefix</title>
<path fill="none" stroke="black" d="M371.675,-215.876C385.536,-206.808 402.741,-195.552 417.711,-185.759"/>
<polygon fill="black" stroke="black" points="419.772,-188.593 426.224,-180.19 415.94,-182.735 419.772,-188.593"/>
</g>
<!-- Block -->
<g id="node16" class="node"><title>Block</title>
<polygon fill="none" stroke="black" points="574.5,-180 520.5,-180 520.5,-144 574.5,-144 574.5,-180"/>
<text text-anchor="middle" x="547.5" y="-158.3" font-family="Times,serif" font-size="14.00">Block</text>
</g>
<!-- For&#45;&gt;Block -->
<g id="edge15" class="edge"><title>For&#45;&gt;Block</title>
<path fill="none" stroke="black" d="M372.743,-223.559C408.383,-211.209 470.966,-189.522 510.769,-175.729"/>
<polygon fill="black" stroke="black" points="512.064,-178.984 520.367,-172.402 509.772,-172.37 512.064,-178.984"/>
</g>
<!-- Var2 -->
<g id="node8" class="node"><title>Var2</title>
<polygon fill="none" stroke="black" points="156,-108 87,-108 87,-72 156,-72 156,-108"/>
<text text-anchor="middle" x="121.5" y="-86.3" font-family="Times,serif" font-size="14.00">Var_Decl</text>
</g>
<!-- Eq2&#45;&gt;Var2 -->
<g id="edge7" class="edge"><title>Eq2&#45;&gt;Var2</title>
<path fill="none" stroke="black" d="M194.522,-143.697C182.189,-134.796 166.984,-123.823 153.647,-114.199"/>
<polygon fill="black" stroke="black" points="155.359,-111.118 145.202,-108.104 151.263,-116.794 155.359,-111.118"/>
</g>
<!-- Const3 -->
<g id="node10" class="node"><title>Const3</title>
<polygon fill="none" stroke="black" points="249,-108 174,-108 174,-72 249,-72 249,-108"/>
<text text-anchor="middle" x="211.5" y="-86.3" font-family="Times,serif" font-size="14.00">Constant 0</text>
</g>
<!-- Eq2&#45;&gt;Const3 -->
<g id="edge9" class="edge"><title>Eq2&#45;&gt;Const3</title>
<path fill="none" stroke="black" d="M216.77,-143.697C215.998,-135.983 215.071,-126.712 214.211,-118.112"/>
<polygon fill="black" stroke="black" points="217.688,-117.706 213.21,-108.104 210.723,-118.403 217.688,-117.706"/>
</g>
<!-- Id2 -->
<g id="node9" class="node"><title>Id2</title>
<polygon fill="none" stroke="black" points="148.5,-36 94.5,-36 94.5,-0 148.5,-0 148.5,-36"/>
<text text-anchor="middle" x="121.5" y="-14.3" font-family="Times,serif" font-size="14.00">Id i</text>
</g>
<!-- Var2&#45;&gt;Id2 -->
<g id="edge8" class="edge"><title>Var2&#45;&gt;Id2</title>
<path fill="none" stroke="black" d="M121.5,-71.6966C121.5,-63.9827 121.5,-54.7125 121.5,-46.1124"/>
<polygon fill="black" stroke="black" points="125,-46.1043 121.5,-36.1043 118,-46.1044 125,-46.1043"/>
</g>
<!-- Id3 -->
<g id="node12" class="node"><title>Id3</title>
<polygon fill="none" stroke="black" points="321.5,-108 267.5,-108 267.5,-72 321.5,-72 321.5,-108"/>
<text text-anchor="middle" x="294.5" y="-86.3" font-family="Times,serif" font-size="14.00">Id i</text>
</g>
<!-- Binary&#45;&gt;Id3 -->
<g id="edge11" class="edge"><title>Binary&#45;&gt;Id3</title>
<path fill="none" stroke="black" d="M332.893,-143.697C326.903,-135.474 319.624,-125.483 313.021,-116.421"/>
<polygon fill="black" stroke="black" points="315.679,-114.126 306.962,-108.104 310.022,-118.248 315.679,-114.126"/>
</g>
<!-- Const2 -->
<g id="node13" class="node"><title>Const2</title>
<polygon fill="none" stroke="black" points="429,-108 340,-108 340,-72 429,-72 429,-108"/>
<text text-anchor="middle" x="384.5" y="-86.3" font-family="Times,serif" font-size="14.00">Constant 100</text>
</g>
<!-- Binary&#45;&gt;Const2 -->
<g id="edge12" class="edge"><title>Binary&#45;&gt;Const2</title>
<path fill="none" stroke="black" d="M355.14,-143.697C359.627,-135.644 365.059,-125.894 370.024,-116.982"/>
<polygon fill="black" stroke="black" points="373.161,-118.544 374.97,-108.104 367.046,-115.137 373.161,-118.544"/>
</g>
<!-- Id4 -->
<g id="node15" class="node"><title>Id4</title>
<polygon fill="none" stroke="black" points="501.5,-108 447.5,-108 447.5,-72 501.5,-72 501.5,-108"/>
<text text-anchor="middle" x="474.5" y="-86.3" font-family="Times,serif" font-size="14.00">Id i</text>
</g>
<!-- Prefix&#45;&gt;Id4 -->
<g id="edge14" class="edge"><title>Prefix&#45;&gt;Id4</title>
<path fill="none" stroke="black" d="M457.938,-143.697C460.389,-135.898 463.34,-126.509 466.068,-117.829"/>
<polygon fill="black" stroke="black" points="469.465,-118.694 469.124,-108.104 462.787,-116.595 469.465,-118.694"/>
</g>
<!-- Eq3 -->
<g id="node17" class="node"><title>Eq3</title>
<polygon fill="none" stroke="black" points="605.5,-108 519.5,-108 519.5,-72 605.5,-72 605.5,-108"/>
<text text-anchor="middle" x="562.5" y="-86.3" font-family="Times,serif" font-size="14.00">Equation +=</text>
</g>
<!-- Block&#45;&gt;Eq3 -->
<g id="edge16" class="edge"><title>Block&#45;&gt;Eq3</title>
<path fill="none" stroke="black" d="M551.208,-143.697C552.861,-135.983 554.847,-126.712 556.69,-118.112"/>
<polygon fill="black" stroke="black" points="560.162,-118.616 558.835,-108.104 553.317,-117.149 560.162,-118.616"/>
</g>
<!-- Id5 -->
<g id="node18" class="node"><title>Id5</title>
<polygon fill="none" stroke="black" points="553.5,-36 499.5,-36 499.5,-0 553.5,-0 553.5,-36"/>
<text text-anchor="middle" x="526.5" y="-14.3" font-family="Times,serif" font-size="14.00">Id x</text>
</g>
<!-- Eq3&#45;&gt;Id5 -->
<g id="edge17" class="edge"><title>Eq3&#45;&gt;Id5</title>
<path fill="none" stroke="black" d="M553.601,-71.6966C549.503,-63.7284 544.551,-54.0995 540.007,-45.2641"/>
<polygon fill="black" stroke="black" points="542.983,-43.3965 535.297,-36.1043 536.758,-46.598 542.983,-43.3965"/>
</g>
<!-- Id6 -->
<g id="node19" class="node"><title>Id6</title>
<polygon fill="none" stroke="black" points="625.5,-36 571.5,-36 571.5,-0 625.5,-0 625.5,-36"/>
<text text-anchor="middle" x="598.5" y="-14.3" font-family="Times,serif" font-size="14.00">Id i</text>
</g>
<!-- Eq3&#45;&gt;Id6 -->
<g id="edge18" class="edge"><title>Eq3&#45;&gt;Id6</title>
<path fill="none" stroke="black" d="M571.399,-71.6966C575.497,-63.7284 580.449,-54.0995 584.993,-45.2641"/>
<polygon fill="black" stroke="black" points="588.242,-46.598 589.703,-36.1043 582.017,-43.3965 588.242,-46.598"/>
</g>
</g>
</svg>
