<?xml version="1.0" encoding="UTF-8" standalone="no"?>
<!DOCTYPE svg PUBLIC "-//W3C//DTD SVG 1.1//EN"
 "http://www.w3.org/Graphics/SVG/1.1/DTD/svg11.dtd">
<!-- Generated by graphviz version 2.38.0 (20140413.2041)
 -->
<!-- Title: G Pages: 1 -->
<svg width="777pt" height="392pt"
 viewBox="0.00 0.00 776.50 392.00" xmlns="http://www.w3.org/2000/svg" xmlns:xlink="http://www.w3.org/1999/xlink">
<g id="graph0" class="graph" transform="scale(1 1) rotate(0) translate(4 388)">
<title>G</title>
<polygon fill="white" stroke="none" points="-4,4 -4,-388 772.5,-388 772.5,4 -4,4"/>
<!-- File -->
<g id="node1" class="node"><title>File</title>
<polygon fill="none" stroke="black" points="298.5,-384 244.5,-384 244.5,-348 298.5,-348 298.5,-384"/>
<text text-anchor="middle" x="271.5" y="-362.3" font-family="Times,serif" font-size="14.00">File</text>
</g>
<!-- Eq1 -->
<g id="node2" class="node"><title>Eq1</title>
<polygon fill="none" stroke="black" points="179,-297 102,-297 102,-261 179,-261 179,-297"/>
<text text-anchor="middle" x="140.5" y="-275.3" font-family="Times,serif" font-size="14.00">Equation =</text>
</g>
<!-- File&#45;&gt;Eq1 -->
<g id="edge1" class="edge"><title>File&#45;&gt;Eq1</title>
<path fill="none" stroke="black" d="M244.99,-347.799C225.014,-334.838 197.432,-316.941 175.622,-302.789"/>
<polygon fill="black" stroke="black" points="177.264,-299.683 166.97,-297.175 173.454,-305.555 177.264,-299.683"/>
<text text-anchor="middle" x="254.5" y="-318.8" font-family="Times,serif" font-size="14.00">eval_internal()</text>
</g>
<!-- For -->
<g id="node6" class="node"><title>For</title>
<polygon fill="none" stroke="black" points="398.5,-297 344.5,-297 344.5,-261 398.5,-261 398.5,-297"/>
<text text-anchor="middle" x="371.5" y="-275.3" font-family="Times,serif" font-size="14.00">For</text>
</g>
<!-- File&#45;&gt;For -->
<g id="edge5" class="edge"><title>File&#45;&gt;For</title>
<path fill="none" stroke="black" d="M291.736,-347.799C306.646,-335.126 327.108,-317.734 343.573,-303.738"/>
<polygon fill="black" stroke="black" points="345.941,-306.319 351.294,-297.175 341.407,-300.985 345.941,-306.319"/>
<text text-anchor="middle" x="367.5" y="-318.8" font-family="Times,serif" font-size="14.00">eval_internal()</text>
</g>
<!-- Var1 -->
<g id="node3" class="node"><title>Var1</title>
<polygon fill="none" stroke="black" points="69,-210 0,-210 0,-174 69,-174 69,-210"/>
<text text-anchor="middle" x="34.5" y="-188.3" font-family="Times,serif" font-size="14.00">Var_Decl</text>
</g>
<!-- Eq1&#45;&gt;Var1 -->
<g id="edge2" class="edge"><title>Eq1&#45;&gt;Var1</title>
<path fill="none" stroke="black" d="M101.807,-268.705C86.163,-263.34 68.909,-255.167 56.5,-243 49.978,-236.605 45.2494,-227.945 41.8881,-219.629"/>
<polygon fill="black" stroke="black" points="45.1804,-218.441 38.5446,-210.182 38.5814,-220.776 45.1804,-218.441"/>
<text text-anchor="middle" x="96.5" y="-231.8" font-family="Times,serif" font-size="14.00">eval_internal()</text>
</g>
<!-- Const1 -->
<g id="node5" class="node"><title>Const1</title>
<polygon fill="none" stroke="black" points="178,-210 103,-210 103,-174 178,-174 178,-210"/>
<text text-anchor="middle" x="140.5" y="-188.3" font-family="Times,serif" font-size="14.00">Constant 0</text>
</g>
<!-- Eq1&#45;&gt;Const1 -->
<g id="edge4" class="edge"><title>Eq1&#45;&gt;Const1</title>
<path fill="none" stroke="black" d="M140.5,-260.799C140.5,-249.163 140.5,-233.548 140.5,-220.237"/>
<polygon fill="black" stroke="black" points="144,-220.175 140.5,-210.175 137,-220.175 144,-220.175"/>
<text text-anchor="middle" x="180.5" y="-231.8" font-family="Times,serif" font-size="14.00">eval_internal()</text>
</g>
<!-- Id1 -->
<g id="node4" class="node"><title>Id1</title>
<polygon fill="none" stroke="black" points="60.5,-123 6.5,-123 6.5,-87 60.5,-87 60.5,-123"/>
<text text-anchor="middle" x="33.5" y="-101.3" font-family="Times,serif" font-size="14.00">Id x</text>
</g>
<!-- Var1&#45;&gt;Id1 -->
<g id="edge3" class="edge"><title>Var1&#45;&gt;Id1</title>
<path fill="none" stroke="black" d="M34.2976,-173.799C34.1607,-162.163 33.977,-146.548 33.8204,-133.237"/>
<polygon fill="black" stroke="black" points="37.3196,-133.134 33.7021,-123.175 30.32,-133.216 37.3196,-133.134"/>
<text text-anchor="middle" x="74.5" y="-144.8" font-family="Times,serif" font-size="14.00">eval_internal()</text>
</g>
<!-- Eq2 -->
<g id="node7" class="node"><title>Eq2</title>
<polygon fill="none" stroke="black" points="278,-210 201,-210 201,-174 278,-174 278,-210"/>
<text text-anchor="middle" x="239.5" y="-188.3" font-family="Times,serif" font-size="14.00">Equation =</text>
</g>
<!-- For&#45;&gt;Eq2 -->
<g id="edge6" class="edge"><title>For&#45;&gt;Eq2</title>
<path fill="none" stroke="black" d="M344.353,-269.877C327.165,-263.988 304.969,-254.959 287.5,-243 277.209,-235.955 267.384,-226.419 259.333,-217.564"/>
<polygon fill="black" stroke="black" points="261.967,-215.259 252.748,-210.038 256.698,-219.868 261.967,-215.259"/>
<text text-anchor="middle" x="327.5" y="-231.8" font-family="Times,serif" font-size="14.00">eval_internal()</text>
</g>
<!-- Binary -->
<g id="node11" class="node"><title>Binary</title>
<polygon fill="none" stroke="black" points="404,-210 339,-210 339,-174 404,-174 404,-210"/>
<text text-anchor="middle" x="371.5" y="-188.3" font-family="Times,serif" font-size="14.00">Binary &lt;</text>
</g>
<!-- For&#45;&gt;Binary -->
<g id="edge10" class="edge"><title>For&#45;&gt;Binary</title>
<path fill="none" stroke="black" d="M371.5,-260.799C371.5,-249.163 371.5,-233.548 371.5,-220.237"/>
<polygon fill="black" stroke="black" points="375,-220.175 371.5,-210.175 368,-220.175 375,-220.175"/>
<text text-anchor="middle" x="411.5" y="-231.8" font-family="Times,serif" font-size="14.00">eval_internal()</text>
</g>
<!-- Prefix -->
<g id="node14" class="node"><title>Prefix</title>
<polygon fill="none" stroke="black" points="557.5,-210 487.5,-210 487.5,-174 557.5,-174 557.5,-210"/>
<text text-anchor="middle" x="522.5" y="-188.3" font-family="Times,serif" font-size="14.00">Prefix ++</text>
</g>
<!-- For&#45;&gt;Prefix -->
<g id="edge13" class="edge"><title>For&#45;&gt;Prefix</title>
<path fill="none" stroke="black" d="M398.779,-268.587C415.614,-262.308 437.381,-253.325 455.5,-243 468.894,-235.367 482.708,-225.461 494.287,-216.481"/>
<polygon fill="black" stroke="black" points="496.616,-219.102 502.286,-210.152 492.272,-213.613 496.616,-219.102"/>
<text text-anchor="middle" x="519.5" y="-231.8" font-family="Times,serif" font-size="14.00">eval_internal()</text>
</g>
<!-- Block -->
<g id="node16" class="node"><title>Block</title>
<polygon fill="none" stroke="black" points="671.5,-210 617.5,-210 617.5,-174 671.5,-174 671.5,-210"/>
<text text-anchor="middle" x="644.5" y="-188.3" font-family="Times,serif" font-size="14.00">Block</text>
</g>
<!-- For&#45;&gt;Block -->
<g id="edge15" class="edge"><title>For&#45;&gt;Block</title>
<path fill="none" stroke="black" d="M398.751,-276.227C436.765,-273.049 507.356,-264.561 563.5,-243 581.003,-236.278 598.901,-225.694 613.406,-215.991"/>
<polygon fill="black" stroke="black" points="615.708,-218.656 621.965,-210.106 611.742,-212.888 615.708,-218.656"/>
<text text-anchor="middle" x="634.5" y="-231.8" font-family="Times,serif" font-size="14.00">eval_internal()</text>
</g>
<!-- Var2 -->
<g id="node8" class="node"><title>Var2</title>
<polygon fill="none" stroke="black" points="171,-123 102,-123 102,-87 171,-87 171,-123"/>
<text text-anchor="middle" x="136.5" y="-101.3" font-family="Times,serif" font-size="14.00">Var_Decl</text>
</g>
<!-- Eq2&#45;&gt;Var2 -->
<g id="edge7" class="edge"><title>Eq2&#45;&gt;Var2</title>
<path fill="none" stroke="black" d="M200.968,-178.291C182.237,-171.466 162.316,-163.035 155.5,-156 149.344,-149.646 145.139,-141.097 142.285,-132.867"/>
<polygon fill="black" stroke="black" points="145.609,-131.763 139.433,-123.154 138.892,-133.735 145.609,-131.763"/>
<text text-anchor="middle" x="195.5" y="-144.8" font-family="Times,serif" font-size="14.00">eval_internal()</text>
</g>
<!-- Const3 -->
<g id="node10" class="node"><title>Const3</title>
<polygon fill="none" stroke="black" points="277,-123 202,-123 202,-87 277,-87 277,-123"/>
<text text-anchor="middle" x="239.5" y="-101.3" font-family="Times,serif" font-size="14.00">Constant 0</text>
</g>
<!-- Eq2&#45;&gt;Const3 -->
<g id="edge9" class="edge"><title>Eq2&#45;&gt;Const3</title>
<path fill="none" stroke="black" d="M239.5,-173.799C239.5,-162.163 239.5,-146.548 239.5,-133.237"/>
<polygon fill="black" stroke="black" points="243,-133.175 239.5,-123.175 236,-133.175 243,-133.175"/>
<text text-anchor="middle" x="279.5" y="-144.8" font-family="Times,serif" font-size="14.00">eval_internal()</text>
</g>
<!-- Id2 -->
<g id="node9" class="node"><title>Id2</title>
<polygon fill="none" stroke="black" points="163.5,-36 109.5,-36 109.5,-0 163.5,-0 163.5,-36"/>
<text text-anchor="middle" x="136.5" y="-14.3" font-family="Times,serif" font-size="14.00">Id i</text>
</g>
<!-- Var2&#45;&gt;Id2 -->
<g id="edge8" class="edge"><title>Var2&#45;&gt;Id2</title>
<path fill="none" stroke="black" d="M136.5,-86.799C136.5,-75.1626 136.5,-59.5479 136.5,-46.2368"/>
<polygon fill="black" stroke="black" points="140,-46.1754 136.5,-36.1754 133,-46.1755 140,-46.1754"/>
<text text-anchor="middle" x="176.5" y="-57.8" font-family="Times,serif" font-size="14.00">eval_internal()</text>
</g>
<!-- Id3 -->
<g id="node12" class="node"><title>Id3</title>
<polygon fill="none" stroke="black" points="369.5,-123 315.5,-123 315.5,-87 369.5,-87 369.5,-123"/>
<text text-anchor="middle" x="342.5" y="-101.3" font-family="Times,serif" font-size="14.00">Id i</text>
</g>
<!-- Binary&#45;&gt;Id3 -->
<g id="edge11" class="edge"><title>Binary&#45;&gt;Id3</title>
<path fill="none" stroke="black" d="M354.163,-173.883C349.868,-168.587 345.831,-162.439 343.5,-156 340.929,-148.898 339.989,-140.848 339.87,-133.315"/>
<polygon fill="black" stroke="black" points="343.373,-133.26 340.163,-123.163 336.376,-133.058 343.373,-133.26"/>
<text text-anchor="middle" x="383.5" y="-144.8" font-family="Times,serif" font-size="14.00">eval_internal()</text>
</g>
<!-- Const2 -->
<g id="node13" class="node"><title>Const2</title>
<polygon fill="none" stroke="black" points="490,-123 401,-123 401,-87 490,-87 490,-123"/>
<text text-anchor="middle" x="445.5" y="-101.3" font-family="Times,serif" font-size="14.00">Constant 100</text>
</g>
<!-- Binary&#45;&gt;Const2 -->
<g id="edge12" class="edge"><title>Binary&#45;&gt;Const2</title>
<path fill="none" stroke="black" d="M402.979,-173.96C410.383,-168.897 417.776,-162.845 423.5,-156 429.209,-149.173 433.689,-140.632 437.074,-132.551"/>
<polygon fill="black" stroke="black" points="440.396,-133.66 440.668,-123.069 433.85,-131.179 440.396,-133.66"/>
<text text-anchor="middle" x="472.5" y="-144.8" font-family="Times,serif" font-size="14.00">eval_internal()</text>
</g>
<!-- Id4 -->
<g id="node15" class="node"><title>Id4</title>
<polygon fill="none" stroke="black" points="575.5,-123 521.5,-123 521.5,-87 575.5,-87 575.5,-123"/>
<text text-anchor="middle" x="548.5" y="-101.3" font-family="Times,serif" font-size="14.00">Id i</text>
</g>
<!-- Prefix&#45;&gt;Id4 -->
<g id="edge14" class="edge"><title>Prefix&#45;&gt;Id4</title>
<path fill="none" stroke="black" d="M527.761,-173.799C531.356,-162.047 536.192,-146.238 540.289,-132.842"/>
<polygon fill="black" stroke="black" points="543.668,-133.762 543.246,-123.175 536.974,-131.714 543.668,-133.762"/>
<text text-anchor="middle" x="577.5" y="-144.8" font-family="Times,serif" font-size="14.00">eval_internal()</text>
</g>
<!-- Eq3 -->
<g id="node17" class="node"><title>Eq3</title>
<polygon fill="none" stroke="black" points="694.5,-123 608.5,-123 608.5,-87 694.5,-87 694.5,-123"/>
<text text-anchor="middle" x="651.5" y="-101.3" font-family="Times,serif" font-size="14.00">Equation +=</text>
</g>
<!-- Block&#45;&gt;Eq3 -->
<g id="edge16" class="edge"><title>Block&#45;&gt;Eq3</title>
<path fill="none" stroke="black" d="M645.917,-173.799C646.875,-162.163 648.161,-146.548 649.257,-133.237"/>
<polygon fill="black" stroke="black" points="652.753,-133.429 650.086,-123.175 645.777,-132.854 652.753,-133.429"/>
<text text-anchor="middle" x="688.5" y="-144.8" font-family="Times,serif" font-size="14.00">eval_internal()</text>
</g>
<!-- Id5 -->
<g id="node18" class="node"><title>Id5</title>
<polygon fill="none" stroke="black" points="626.5,-36 572.5,-36 572.5,-0 626.5,-0 626.5,-36"/>
<text text-anchor="middle" x="599.5" y="-14.3" font-family="Times,serif" font-size="14.00">Id x</text>
</g>
<!-- Eq3&#45;&gt;Id5 -->
<g id="edge17" class="edge"><title>Eq3&#45;&gt;Id5</title>
<path fill="none" stroke="black" d="M613.182,-86.8193C606.488,-82.0373 600.421,-76.1435 596.5,-69 592.76,-62.1868 591.997,-54.0366 592.588,-46.3134"/>
<polygon fill="black" stroke="black" points="596.081,-46.6164 594.082,-36.212 589.157,-45.5926 596.081,-46.6164"/>
<text text-anchor="middle" x="636.5" y="-57.8" font-family="Times,serif" font-size="14.00">eval_internal()</text>
</g>
<!-- Id6 -->
<g id="node19" class="node"><title>Id6</title>
<polygon fill="none" stroke="black" points="729.5,-36 675.5,-36 675.5,-0 729.5,-0 729.5,-36"/>
<text text-anchor="middle" x="702.5" y="-14.3" font-family="Times,serif" font-size="14.00">Id i</text>
</g>
<!-- Eq3&#45;&gt;Id6 -->
<g id="edge18" class="edge"><title>Eq3&#45;&gt;Id6</title>
<path fill="none" stroke="black" d="M667.259,-86.917C671.867,-81.4346 676.685,-75.177 680.5,-69 684.985,-61.7378 689.035,-53.402 692.402,-45.6451"/>
<polygon fill="black" stroke="black" points="695.699,-46.8324 696.284,-36.2537 689.23,-44.1588 695.699,-46.8324"/>
<text text-anchor="middle" x="728.5" y="-57.8" font-family="Times,serif" font-size="14.00">eval_internal()</text>
</g>
</g>
</svg>
